<svg aria-hidden="true" style="position:absolute;width:0;height:0;overflow:hidden" xmlns="http://www.w3.org/2000/svg">
  <defs>
    <symbol id="icon-interpreneur" viewBox="0 0 32 32">
      <path fill="#f4f5f7" style="fill:var(--color1, #f4f5f7)" d="M16 0c8.837 0 16 7.163 16 16s-7.163 16-16 16S0 24.837 0 16 7.163 0 16 0z"/>
      <path fill="#d6b1ff" style="fill:var(--color2, #d6b1ff)" d="M11.52 8.96H9.6a.64.64 0 0 0-.64.64v12.8a.64.64 0 0 0 .64.64h1.92V8.96z"/>
      <path fill="#f03e3d" style="fill:var(--color3, #f03e3d)" d="M12.8 23.04h6.4V8.96h-6.4v14.08zm3.2-2.56a.64.64 0 1 1-.002-1.28.64.64 0 0 1 .002 1.28zm0-8.96a.64.64 0 1 1 .002 1.28.64.64 0 0 1-.002-1.28zm0 3.84a.64.64 0 1 1 .002 1.28.64.64 0 0 1-.002-1.28zM22.4 8.96h-1.92v14.08h1.92a.64.64 0 0 0 .64-.64V9.6a.64.64 0 0 0-.64-.64z"/>
    </symbol>
    <symbol id="icon-accountants-" viewBox="0 0 32 32">
      <path fill="#f4f5f7" style="fill:var(--color1, #f4f5f7)" d="M16 0c8.837 0 16 7.163 16 16s-7.163 16-16 16S0 24.837 0 16 7.163 0 16 0z"/>
      <path fill="#d6b1ff" style="fill:var(--color2, #d6b1ff)" d="M21.76 23.68H16a.64.64 0 0 1-.64-.64v-1.28a.64.64 0 0 1 .64-.64h5.76a.64.64 0 0 1 .64.64v1.28a.64.64 0 0 1-.64.64z"/>
      <path fill="#11b5e4" style="fill:var(--color4, #11b5e4)" d="M21.76 8.32H10.24a.64.64 0 0 0-.64.64v1.28a.64.64 0 0 0 .64.64h11.52a.64.64 0 0 0 .64-.64V8.96a.64.64 0 0 0-.64-.64zM21.76 12.16H10.24a.64.64 0 0 0-.64.64v6.4a.64.64 0 0 0 .64.64h11.52a.64.64 0 0 0 .64-.64v-6.4a.64.64 0 0 0-.64-.64z"/>
    </symbol>
    <symbol id="icon-universities-" viewBox="0 0 32 32">
      <path fill="#f4f5f7" style="fill:var(--color1, #f4f5f7)" d="M16 0c8.837 0 16 7.163 16 16s-7.163 16-16 16S0 24.837 0 16 7.163 0 16 0z"/>
      <path fill="#d6b1ff" style="fill:var(--color2, #d6b1ff)" d="M19.84 14.72h3.84l-1.92-2.56-1.92 2.56zm0 2.56h3.84l-1.92 2.56-1.92-2.56z"/>
      <path fill="#02897a" style="fill:var(--color5, #02897a)" d="M8.96 8.32h3.84v15.36H8.96a.64.64 0 0 1-.64-.64V8.96a.64.64 0 0 1 .64-.64zM14.08 8.32h3.84a.64.64 0 0 1 .64.64v14.08a.64.64 0 0 1-.64.64h-3.84V8.32z"/>
    </symbol>
    <symbol id="icon-turn-on-off" viewBox="0 0 32 32">
      <path fill="#f3f3f3" style="fill:var(--color6, #f3f3f3)" d="M16 0c8.837 0 16 7.163 16 16s-7.163 16-16 16S0 24.837 0 16 7.163 0 16 0z"/>
      <path fill="#02897a" style="fill:var(--color5, #02897a)" d="M16 26c5.514 0 10-4.486 10-10S21.514 6 16 6 6 10.486 6 16s4.486 10 10 10zm0-18c4.411 0 8 3.589 8 8s-3.589 8-8 8-8-3.589-8-8 3.589-8 8-8z"/>
      <path fill="#02897a" style="fill:var(--color5, #02897a)" d="M23 16a7 7 0 0 0-7-7v14a7 7 0 0 0 7-7z"/>
    </symbol>
    <symbol id="icon-mobile-screen" viewBox="0 0 21 32">
      <path fill="#02897a" style="fill:var(--color5, #02897a)" d="M16.935 2.286H3.636c-1.377 0-2.494 1.152-2.494 2.571v22.286c0 1.42 1.117 2.571 2.494 2.571h13.299c1.377 0 2.494-1.152 2.494-2.571V4.857c0-1.42-1.117-2.571-2.494-2.571zm-4.156 23.952c0 .52-.374.905-.831.905H8.577c-.41 0-.784-.386-.784-.857s.374-.857.831-.857h3.325c.457 0 .831.386.831.809zm3.325-3.381H4.468V5.714h11.636v17.143z"/>
    </symbol>
    <symbol id="icon-facebook" viewBox="0 0 32 32">
      <path fill="#edfffc" style="fill:var(--color7, #edfffc)" d="M32 16c0 8.837-7.163 16-16 16S0 24.837 0 16 7.163 0 16 0s16 7.163 16 16z"/>
      <path fill="none" stroke="#02897a" style="stroke:var(--color5, #02897a)" stroke-linejoin="round" stroke-linecap="round" stroke-width="1.6" d="M20.8 8h-2.4a4.003 4.003 0 0 0-4 4v2.4H12v3.2h2.4V24h3.2v-6.4H20l.8-3.2h-3.2V12a.8.8 0 0 1 .8-.8h2.4V8z"/>
    </symbol>
    <symbol id="icon-instagram" viewBox="0 0 32 32">
      <path fill="#edfffc" style="fill:var(--color7, #edfffc)" d="M32 16c0 8.837-7.163 16-16 16S0 24.837 0 16 7.163 0 16 0s16 7.163 16 16z"/>
      <path fill="none" stroke="#02897a" style="stroke:var(--color5, #02897a)" stroke-linejoin="round" stroke-linecap="round" stroke-width="1.6" d="M20 8h-8a4 4 0 0 0-4 4v8a4 4 0 0 0 4 4h8a4 4 0 0 0 4-4v-8a4 4 0 0 0-4-4z"/>
      <path fill="none" stroke="#02897a" style="stroke:var(--color5, #02897a)" stroke-linejoin="round" stroke-linecap="round" stroke-width="1.6" d="M19.2 15.496a3.197 3.197 0 0 1-1.727 3.328 3.197 3.197 0 0 1-3.701-.596 3.202 3.202 0 0 1 .788-5.103 3.197 3.197 0 0 1 3.736.578c.485.486.802 1.114.903 1.793zM20.4 11.6h.008"/>
    </symbol>
    <symbol id="icon-red-sundglass" viewBox="0 0 32 32">
      <path fill="#f03e3d" style="fill:var(--color3, #f03e3d)" d="M11.259 0h9.481c6.218 0 11.259 5.041 11.259 11.259v9.481c0 6.218-5.041 11.259-11.259 11.259h-9.481C5.041 31.999 0 26.958 0 20.74v-9.481C0 5.041 5.041 0 11.259 0z"/>
      <path fill="#fff" style="fill:var(--color8, #fff)" d="M19.302 12.106h.508a.167.167 0 0 0 .169-.169v-.339a.167.167 0 0 0-.169-.169h-7.788a.167.167 0 0 0-.169.169v.339c0 .095.074.169.169.169h.508c0 1.958.936 3.376 1.973 4.063-1.037.688-1.973 2.106-1.973 4.064h-.508a.167.167 0 0 0-.169.169v.339c0 .095.074.169.169.169h7.788a.167.167 0 0 0 .169-.169v-.339a.167.167 0 0 0-.169-.169h-.508c0-1.958-.936-3.376-1.974-4.064 1.037-.688 1.974-2.106 1.974-4.063zm-.678 0c0 .772-.175 1.455-.45 2.032h-4.519a4.693 4.693 0 0 1-.45-2.032h5.418zm-.301 6.434h-4.815c.392-1.021 1.095-1.746 1.799-2.032h1.217c.704.286 1.407 1.011 1.799 2.032z"/>
    </symbol>
    <symbol id="icon-purple-heard" viewBox="0 0 28 32">
      <path fill="#740a76" style="fill:var(--color9, #740a76)" d="M9.806 0h8.258c5.416 0 9.806 4.391 9.806 9.806v8.258c0 5.416-4.39 9.806-9.806 9.806H9.806C4.39 27.87 0 23.48 0 18.064V9.806C0 4.39 4.391 0 9.806 0z"/>
      <path fill="#fff" style="fill:var(--color8, #fff)" d="M13.935 17.622a.289.289 0 0 0 .203-.083l2.871-2.765c.041-.041 1.055-.968 1.055-2.074 0-1.35-.825-2.157-2.203-2.157-.806 0-1.562.636-1.926.995-.364-.359-1.12-.995-1.926-.995-1.378 0-2.203.806-2.203 2.157 0 1.106 1.014 2.032 1.051 2.065l2.876 2.774a.287.287 0 0 0 .203.083z"/>
    </symbol>
    <symbol id="icon-blue-wave-" viewBox="0 0 28 32">
      <path fill="#4d8dff" style="fill:var(--color10, #4d8dff)" d="M9.806 0h8.258c5.416 0 9.806 4.391 9.806 9.806v8.258c0 5.416-4.39 9.806-9.806 9.806H9.806C4.39 27.87 0 23.48 0 18.064V9.806C0 4.39 4.391 0 9.806 0z"/>
      <path fill="#fff" style="fill:var(--color8, #fff)" d="m14.184 13.235.604.281.899-.267v-.627c0-1.065-.899-1.917-1.972-1.917-1.069 0-1.972.848-1.972 1.903v2.857c0 .263-.212.47-.47.47s-.47-.207-.47-.47v-1.207H9.291v1.226c0 1.092.885 1.977 1.977 1.977 1.083 0 1.977-.871 1.977-1.949v-2.82c0-.258.212-.47.47-.47s.47.212.47.47v.544zm2.443 1.023v1.267c0 .258-.212.465-.47.465s-.47-.207-.47-.465v-1.244l-.899.267-.604-.281v1.235a1.97 1.97 0 0 0 1.977 1.959 1.977 1.977 0 0 0 1.977-1.977v-1.226h-1.512z"/>
    </symbol>
    <symbol id="icon-green-cursor" viewBox="0 0 28 32">
      <path fill="#02897a" style="fill:var(--color5, #02897a)" d="M9.806 0h8.258c5.416 0 9.806 4.391 9.806 9.806v8.258c0 5.416-4.39 9.806-9.806 9.806H9.806C4.39 27.87 0 23.48 0 18.064V9.806C0 4.39 4.391 0 9.806 0z"/>
      <path fill="#fff" style="fill:var(--color8, #fff)" d="m16.576 14.76-4.719-4.719a.275.275 0 0 0-.207-.088.298.298 0 0 0-.111.023.294.294 0 0 0-.184.272v6.931a.296.296 0 0 0 .295.295.29.29 0 0 0 .207-.088l1.438-1.438.88 2.083a.298.298 0 0 0 .387.157l.816-.346a.297.297 0 0 0 .157-.387l-.926-2.194h1.76c.12 0 .226-.074.272-.184a.284.284 0 0 0-.065-.318z"/>
    </symbol>
    <symbol id="git" viewBox="0 0 28 32">
      <path fill="#02897a" style="fill:var(--color5, #02897a)" d="M26.088 12.891c2.441 1.354 2.441 4.864 0 6.218L4.933 30.848c-2.37 1.315-5.281-.399-5.281-3.109V4.262c0-2.71 2.911-4.424 5.281-3.109l21.155 11.739z"/>
    </symbol>
    <symbol id="icon-feedback" viewBox="0 0 188 32">
      <path fill="#f3cd03" style="fill:var(--color11, #f3cd03)" d="M32.404 11.487c-.102-.296-.29-.556-.541-.749s-.553-.308-.869-.333l-9.261-.725L17.725.944c-.128-.281-.335-.52-.598-.688a1.638 1.638 0 0 0-1.764-.001 1.6 1.6 0 0 0-.599.687l-4.008 8.737-9.261.725c-.311.024-.609.136-.857.323s-.437.439-.543.728a1.577 1.577 0 0 0 .394 1.689l6.844 6.57-2.421 10.321c-.074.312-.05.639.068.938s.324.556.592.739a1.64 1.64 0 0 0 1.826.013l8.845-5.807 8.845 5.807a1.646 1.646 0 0 0 1.857-.04c.268-.193.47-.462.579-.771s.118-.644.028-.958l-2.971-10.238 7.369-6.53c.482-.429.66-1.097.452-1.704zM71.393 11.487c-.102-.296-.29-.556-.541-.749s-.553-.308-.87-.333l-9.261-.725L56.713.944c-.128-.281-.335-.52-.598-.688a1.638 1.638 0 0 0-1.764-.001 1.6 1.6 0 0 0-.599.687l-4.008 8.737-9.261.725c-.311.024-.609.136-.857.323s-.436.439-.543.728-.125.602-.055.902c.07.3.226.573.449.787l6.844 6.57L43.9 30.035c-.073.312-.05.639.068.938a1.616 1.616 0 0 0 1.502 1.022c.326.002.644-.092.915-.27l8.846-5.807 8.845 5.807a1.646 1.646 0 0 0 1.857-.04c.268-.193.47-.462.579-.771s.118-.644.028-.958l-2.971-10.238 7.369-6.53c.483-.429.66-1.097.452-1.704zM110.376 11.487c-.102-.296-.29-.556-.541-.749s-.553-.308-.87-.333l-9.261-.725L95.696.944c-.128-.281-.335-.52-.598-.688a1.638 1.638 0 0 0-1.764-.001 1.6 1.6 0 0 0-.599.687l-4.008 8.737-9.261.725c-.311.024-.609.136-.857.323s-.437.439-.543.728a1.577 1.577 0 0 0 .394 1.689l6.844 6.57-2.42 10.321c-.073.312-.05.639.068.938s.324.556.592.739a1.64 1.64 0 0 0 1.826.013l8.846-5.807 8.845 5.807a1.646 1.646 0 0 0 1.857-.04 1.583 1.583 0 0 0 .607-1.729l-2.971-10.238 7.369-6.53c.482-.429.66-1.097.452-1.704zM149.369 11.487c-.102-.296-.29-.556-.541-.749s-.553-.308-.869-.333l-9.261-.725L134.69.944c-.128-.281-.335-.52-.598-.688a1.638 1.638 0 0 0-1.764-.001 1.6 1.6 0 0 0-.599.687l-4.008 8.737-9.261.725c-.311.024-.609.136-.857.323s-.437.439-.543.728a1.577 1.577 0 0 0 .394 1.689l6.844 6.57-2.42 10.321c-.074.312-.05.639.068.938s.324.556.592.739a1.64 1.64 0 0 0 1.826.013l8.845-5.807 8.845 5.807a1.646 1.646 0 0 0 1.857-.04c.268-.193.47-.462.579-.771.109-.309.118-.644.028-.958l-2.971-10.238 7.369-6.53c.482-.429.66-1.097.452-1.704zM163.291 19.716l-2.42 10.321c-.075.313-.052.64.065.94s.323.558.591.74a1.635 1.635 0 0 0 1.828.01l8.845-5.807 8.846 5.807a1.644 1.644 0 0 0 1.858-.04c.268-.193.469-.462.578-.771s.119-.644.028-.958l-2.971-10.238 7.369-6.53a1.587 1.587 0 0 0-.088-2.451 1.632 1.632 0 0 0-.869-.332l-9.262-.726-4.008-8.736c-.128-.281-.335-.52-.598-.688a1.638 1.638 0 0 0-1.764 0 1.6 1.6 0 0 0-.598.688l-4.008 8.736-9.261.725c-.311.024-.609.136-.857.323s-.437.439-.543.728a1.586 1.586 0 0 0 .394 1.689l6.845 6.57zm4.634-6.92c.29-.023.568-.121.806-.286s.426-.39.545-.651l2.923-6.368 2.923 6.368a1.627 1.627 0 0 0 1.351.937l6.453.504-5.314 4.709a1.587 1.587 0 0 0-.476 1.628l2.035 7.014-6.069-3.985a1.634 1.634 0 0 0-1.802 0l-6.342 4.164 1.706-7.272a1.579 1.579 0 0 0-.448-1.504l-4.935-4.738 6.644-.521z"/>
    </symbol>
  </defs>
</svg>
